<svg width="27" height="15" viewBox="0 0 27 15" fill="none" style="padding: 5px" xmlns="http://www.w3.org/2000/svg" transform="rotate(90)">

<path fill-rule="evenodd" clip-rule="evenodd" d="M25.7082 14.1066C25.6153 14.1997 25.5049 14.2736 25.3834 14.324C25.2619 14.3744 25.1317 14.4004 25.0002 14.4004C24.8686 14.4004 24.7384 14.3744 24.6169 14.324C24.4954 14.2736 24.3851 14.1997 24.2922 14.1066L13.0002 2.8126L1.70817 14.1066C1.61519 14.1996 1.50481 14.2733 1.38333 14.3237C1.26185 14.374 1.13165 14.3999 1.00017 14.3999C0.868679 14.3999 0.738478 14.374 0.616999 14.3237C0.49552 14.2733 0.385141 14.1996 0.292166 14.1066C0.19919 14.0136 0.125437 13.9032 0.075119 13.7818C0.0248013 13.6603 -0.00109673 13.5301 -0.00109673 13.3986C-0.00109673 13.2671 0.0248013 13.1369 0.075119 13.0154C0.125437 12.894 0.19919 12.7836 0.292166 12.6906L12.2922 0.690601C12.3851 0.597475 12.4954 0.52359 12.6169 0.473177C12.7384 0.422764 12.8686 0.396814 13.0002 0.396814C13.1317 0.396814 13.2619 0.422764 13.3834 0.473177C13.5049 0.52359 13.6153 0.597475 13.7082 0.690601L25.7082 12.6906C25.8013 12.7835 25.8752 12.8938 25.9256 13.0153C25.976 13.1368 26.002 13.2671 26.002 13.3986C26.002 13.5301 25.976 13.6604 25.9256 13.7819C25.8752 13.9034 25.8013 14.0137 25.7082 14.1066Z" fill="white"/>
</svg>
