<svg width="17" height="17" viewBox="0 0 17 17" fill="none" xmlns="http://www.w3.org/2000/svg">
<path d="M8.64681 4.55159C7.83507 4.55159 7.04156 4.79205 6.36662 5.24257C5.69168 5.69308 5.16563 6.33341 4.85499 7.08259C4.54435 7.83177 4.46308 8.65614 4.62144 9.45146C4.7798 10.2468 5.17069 10.9773 5.74468 11.5507C6.31867 12.1241 7.04997 12.5146 7.84611 12.6728C8.64225 12.831 9.46748 12.7498 10.2174 12.4395C10.9674 12.1292 11.6084 11.6037 12.0593 10.9294C12.5103 10.2552 12.751 9.4625 12.751 8.65159C12.751 8.11317 12.6449 7.58003 12.4386 7.08259C12.2324 6.58516 11.93 6.13318 11.5489 5.75246C11.1678 5.37174 10.7154 5.06973 10.2174 4.86369C9.71948 4.65764 9.18578 4.55159 8.64681 4.55159ZM8.64681 11.3226C8.11858 11.3226 7.60222 11.1661 7.16302 10.873C6.72381 10.5798 6.3815 10.1631 6.17935 9.67559C5.97721 9.18808 5.92432 8.65163 6.02737 8.13409C6.13042 7.61655 6.38479 7.14116 6.7583 6.76803C7.13181 6.39491 7.60769 6.1408 8.12577 6.03786C8.64384 5.93491 9.18084 5.98775 9.66886 6.18968C10.1569 6.39162 10.574 6.73358 10.8675 7.17233C11.1609 7.61108 11.3176 8.12691 11.3176 8.65459C11.3162 9.36178 11.0344 10.0396 10.5339 10.5397C10.0333 11.0398 9.35473 11.3213 8.64681 11.3226ZM13.8802 4.38359C13.8802 4.57287 13.824 4.7579 13.7187 4.91527C13.6135 5.07265 13.4639 5.19531 13.2888 5.26775C13.1138 5.34018 12.9211 5.35913 12.7353 5.3222C12.5495 5.28528 12.3788 5.19413 12.2448 5.06029C12.1108 4.92646 12.0196 4.75593 11.9826 4.5703C11.9457 4.38466 11.9646 4.19223 12.0371 4.01737C12.1097 3.8425 12.2324 3.69303 12.39 3.58788C12.5475 3.48272 12.7327 3.42659 12.9222 3.42659C13.0482 3.4262 13.173 3.45067 13.2894 3.49862C13.4059 3.54656 13.5117 3.61702 13.6008 3.70595C13.69 3.79488 13.7606 3.90053 13.8087 4.01682C13.8568 4.13312 13.8815 4.25776 13.8812 4.38359H13.8802ZM16.601 5.35459C16.6274 4.11014 16.1625 2.90529 15.3067 2.00059C14.3993 1.14914 13.1949 0.685511 11.9502 0.708594C10.6278 0.633594 6.66276 0.633594 5.3434 0.708594C4.09799 0.683167 2.8921 1.14586 1.98394 1.99759C1.12953 2.90317 0.664796 4.10742 0.689609 5.35159C0.614531 6.67259 0.614531 10.6336 0.689609 11.9516C0.663178 13.196 1.12814 14.4009 1.98394 15.3056C2.89175 16.1587 4.09725 16.6237 5.3434 16.6016C6.66577 16.6766 10.6309 16.6766 11.9502 16.6016C13.196 16.628 14.402 16.1635 15.3077 15.3086C16.1606 14.4021 16.6251 13.1985 16.602 11.9546C16.6771 10.6336 16.6771 6.67659 16.602 5.35459H16.601ZM14.8932 13.3726C14.7573 13.7168 14.552 14.0294 14.2901 14.2911C14.0282 14.5527 13.7152 14.7578 13.3707 14.8936C12.3156 15.3146 9.81301 15.2146 8.64681 15.2146C7.48061 15.2146 4.97502 15.3076 3.92394 14.8936C3.57937 14.7578 3.26641 14.5527 3.00449 14.2911C2.74257 14.0294 2.53728 13.7168 2.40137 13.3726C1.98394 12.3146 2.08004 9.81459 2.08004 8.65459C2.08004 7.49459 1.98695 4.98659 2.40137 3.93659C2.53728 3.59209 2.74267 3.2792 3.00477 3.01737C3.26687 2.75554 3.58009 2.55036 3.92494 2.41459C4.98003 1.99759 7.48261 2.09459 8.64681 2.09459C9.81101 2.09459 12.3186 2.00159 13.3697 2.41559C13.7144 2.55125 14.0276 2.75627 14.2897 3.01793C14.5518 3.27958 14.7572 3.59228 14.8932 3.93659C15.3117 4.99059 15.2146 7.49059 15.2146 8.65459C15.2146 9.81859 15.3117 12.3226 14.8932 13.3726Z" fill="#888888"/>
</svg>
