<svg width="14" height="14" viewBox="0 0 36 36" fill="black" xmlns="http://www.w3.org/2000/svg">
<path d="M17.9998 20.1426C23.3235 20.1426 27.6426 15.8235 27.6426 10.4998C27.6426 5.17613 23.3235 0.856934 17.9998 0.856934C12.6761 0.856934 8.35693 5.17613 8.35693 10.4998C8.35693 15.8235 12.6761 20.1426 17.9998 20.1426ZM26.5712 22.2855H22.8815C21.3949 22.9685 19.7409 23.3569 17.9998 23.3569C16.2587 23.3569 14.6114 22.9685 13.1181 22.2855H9.42836C4.69399 22.2855 0.856934 26.1226 0.856934 30.8569V31.9284C0.856934 33.7029 2.29667 35.1426 4.07122 35.1426H31.9284C33.7029 35.1426 35.1426 33.7029 35.1426 31.9284V30.8569C35.1426 26.1226 31.3056 22.2855 26.5712 22.2855Z" />
</svg>